<svg xmlns="http://www.w3.org/2000/svg" viewBox="0 0 245.79 132.47"><defs><style>.cls-1{fill:#dca5cb;stroke:#231f20;stroke-miterlimit:10;}</style></defs><title>cloud</title><g id="Layer_2" data-name="Layer 2"><g id="weather"><path id="cloud" class="cls-1" d="M245.29,76.25a42.49,42.49,0,0,0-57-39.9C178.48,15.4,153.49.5,124.2.5,88.76.5,59.62,22.3,56.07,50.24A41.78,41.78,0,0,0,4,106.36a12,12,0,0,0-.08,1.32V120a12,12,0,0,0,12,12h211a12,12,0,0,0,12-12V107.68a11.89,11.89,0,0,0-1.84-6.34A42.27,42.27,0,0,0,245.29,76.25Z"/></g></g></svg>