<svg xmlns="http://www.w3.org/2000/svg" viewBox="0 0 205.96 205.38"><defs><style>.cls-1{fill:#dca5cb;stroke:#231f20;stroke-miterlimit:10;}</style></defs><title>sunshine</title><g id="Layer_2" data-name="Layer 2"><g id="sunshine"><path id="sun" class="cls-1" d="M101.76,51.17a51.14,51.14,0,1,0,51.14,51.14A51.14,51.14,0,0,0,101.76,51.17Zm.34,91.76a40,40,0,1,1,40-40A40,40,0,0,1,102.1,142.93Z"/><g id="rays"><rect class="cls-1" x="14.45" y="81.35" width="15.81" height="43.7" rx="7.9" ry="7.9" transform="translate(-80.85 125.55) rotate(-90)"/><rect class="cls-1" x="92.48" y="0.5" width="15.81" height="43.7" rx="7.9" ry="7.9"/><rect class="cls-1" x="175.7" y="80.3" width="15.81" height="43.7" rx="7.9" ry="7.9" transform="translate(285.76 -81.46) rotate(90)"/><rect class="cls-1" x="93.5" y="161.18" width="15.81" height="43.7" rx="7.9" ry="7.9" transform="translate(202.82 366.06) rotate(180)"/><rect class="cls-1" x="31.65" y="24.57" width="15.81" height="43.7" rx="7.9" ry="7.9" transform="translate(100.54 47.36) rotate(131.3)"/><rect class="cls-1" x="153.83" y="138.61" width="15.81" height="43.7" rx="7.9" ry="7.9" transform="translate(389.04 144.88) rotate(131.3)"/><rect class="cls-1" x="159.94" y="25.93" width="15.81" height="43.7" rx="7.9" ry="7.9" transform="translate(92.95 -109.85) rotate(48.7)"/><rect class="cls-1" x="31.65" y="137.25" width="15.81" height="43.7" rx="7.9" ry="7.9" transform="translate(132.97 24.37) rotate(48.7)"/></g></g></g></svg>